<?xml version="1.0" encoding="UTF-8" standalone="no"?><svg xmlns="http://www.w3.org/2000/svg" xmlns:xlink="http://www.w3.org/1999/xlink" fill="#000000" height="32.9" preserveAspectRatio="xMidYMid meet" version="1" viewBox="0.0 -0.0 66.2 32.9" width="66.2" zoomAndPan="magnify"><defs><clipPath id="a"><path d="M 3 3 L 66.238281 3 L 66.238281 32.898438 L 3 32.898438 Z M 3 3"/></clipPath></defs><g><g clip-path="url(#a)" id="change1_1"><path d="M 63.390625 3.28125 C 64.757812 4.800781 65.585938 6.808594 65.585938 9.011719 C 65.585938 13.554688 65.585938 19.125 65.585938 23.667969 C 65.585938 28.40625 61.746094 32.246094 57.011719 32.246094 C 44.574219 32.246094 21.664062 32.246094 9.230469 32.246094 C 7.027344 32.246094 5.019531 31.417969 3.5 30.050781 C 5.070312 31.800781 7.347656 32.898438 9.882812 32.898438 C 22.320312 32.898438 45.226562 32.898438 57.664062 32.898438 C 62.398438 32.898438 66.238281 29.058594 66.238281 24.324219 C 66.238281 19.777344 66.238281 14.210938 66.238281 9.664062 C 66.238281 7.128906 65.140625 4.851562 63.390625 3.28125" fill="#c2deee" fill-rule="evenodd"/></g><g id="change2_1"><path d="M 64.933594 8.574219 C 64.933594 3.839844 61.09375 -0.00390625 56.355469 -0.00390625 C 43.917969 -0.00390625 21.011719 -0.00390625 8.574219 -0.00390625 C 3.839844 -0.00390625 0 3.839844 0 8.574219 C 0 13.121094 0 18.6875 0 23.234375 C 0 27.972656 3.839844 31.8125 8.574219 31.8125 C 21.011719 31.8125 43.917969 31.8125 56.355469 31.8125 C 61.09375 31.8125 64.933594 27.972656 64.933594 23.234375 C 64.933594 18.6875 64.933594 13.121094 64.933594 8.574219" fill="#06284d" fill-rule="evenodd"/></g></g></svg>