<svg xmlns="http://www.w3.org/2000/svg" xmlns:xlink="http://www.w3.org/1999/xlink" fill="#000000" height="93.3" preserveAspectRatio="xMidYMid meet" version="1" viewBox="-0.1 -0.0 347.2 93.3" width="347.2" zoomAndPan="magnify"><g id="change1_1"><path d="M339.95,10.16l-5.54,0.06l-0.11-1.61c-0.18-2.52-2.29-4.48-4.81-4.48c-0.01,0-0.03,0-0.04,0L11.77,7.04 c-2.49,0.02-4.53,1.91-4.76,4.38l-0.24,2.6l-2.05,0.02C3.14,14.07,1.89,15.42,2.01,17L4,44.43L0.02,88 c-0.13,1.37,0.34,2.74,1.29,3.74c0.91,0.97,2.19,1.52,3.52,1.52c0.05,0,0.09,0,0.14,0l179.43-5.13l142.82,1.97 c1.36,0.02,2.53-0.95,2.75-2.29l0.66-3.86l3.95-0.11c1.33-0.04,2.55-0.6,3.44-1.58c0.89-0.98,1.33-2.25,1.24-3.58l-2.26-31.94 l5.71-33.35C342.99,11.69,341.67,10.14,339.95,10.16z M11.13,11.8c0.03-0.35,0.32-0.62,0.68-0.63l317.67-2.91c0,0,0,0,0.01,0 c0.36,0,0.66,0.28,0.69,0.64l0.1,1.37l-319.34,3.7L11.13,11.8z M4.84,89.12c-0.27,0.02-0.44-0.13-0.52-0.22 c-0.08-0.08-0.21-0.27-0.18-0.53l1.7-18.63l0.97,13.41c0.1,1.43,1.28,2.54,2.71,2.56l77.31,1.07L4.84,89.12z M335.12,78.96 c0.02,0.26-0.1,0.43-0.18,0.51c-0.07,0.08-0.24,0.22-0.49,0.23h0l-3.12,0.09l2.72-15.91L335.12,78.96z" fill="#dbbdd4"/></g><g id="change2_1"><path d="M331.34,85.96L13.66,81.58c-1.43-0.02-2.61-1.13-2.71-2.56l-4.8-66.16c-0.12-1.58,1.13-2.94,2.72-2.95 l335.22-3.88c1.72-0.02,3.04,1.52,2.75,3.22l-12.73,74.42C333.87,85.01,332.7,85.98,331.34,85.96z" fill="#000000"/></g><path d="M338.65,77.63 L9.03,87.06c-1.65,0.05-2.97-1.36-2.82-3.01l6.99-76.57c0.13-1.41,1.3-2.49,2.72-2.5l317.67-2.91c1.46-0.01,2.67,1.11,2.77,2.56 l4.95,70.05C341.43,76.24,340.21,77.58,338.65,77.63z" fill="none" stroke="#000000" stroke-linejoin="round" stroke-miterlimit="10" stroke-width="4.133"/></svg>